<svg width="7" height="12" viewBox="0 0 7 12" fill="none" xmlns="http://www.w3.org/2000/svg">
<path fill-rule="evenodd" clip-rule="evenodd" d="M0.969486 10.3327C0.600953 10.744 0.635655 11.3763 1.047 11.7448C1.45834 12.1133 2.09055 12.0786 2.45909 11.6673L6.73631 6.89322C6.80696 6.81653 6.86358 6.73111 6.90596 6.64044C6.96934 6.50514 7.00048 6.35911 6.99999 6.21348C6.99961 6.06984 6.96847 5.92595 6.90596 5.79251C6.86357 5.70182 6.80695 5.61639 6.73627 5.53969L2.45909 0.765656C2.09055 0.354314 1.45834 0.31961 1.047 0.688142C0.635657 1.05668 0.600953 1.68889 0.969485 2.10023L4.65734 6.21647L0.969486 10.3327Z" fill="#C4C4C4"/>
</svg>
