<svg width="40" height="40" viewBox="0 0 40 40" fill="none" xmlns="http://www.w3.org/2000/svg">
<path d="M40 20C40 31.0457 31.0457 40 20 40C8.9543 40 0 31.0457 0 20C0 8.9543 8.9543 0 20 0C31.0457 0 40 8.9543 40 20Z" fill="#F5F5F5"/>
<path fill-rule="evenodd" clip-rule="evenodd" d="M17.2929 25.2929C16.9024 25.6834 16.9024 26.3166 17.2929 26.7071C17.6834 27.0976 18.3166 27.0976 18.7071 26.7071L24.7071 20.7071C25.0976 20.3166 25.0976 19.6834 24.7071 19.2929L18.7071 13.2929C18.3166 12.9024 17.6834 12.9024 17.2929 13.2929C16.9024 13.6834 16.9024 14.3166 17.2929 14.7071L22.5858 20L17.2929 25.2929Z" fill="#828282"/>
</svg>
